{
	"patcher" : 	{
		"fileversion" : 1,
		"appversion" : 		{
			"major" : 8,
			"minor" : 5,
			"revision" : 6,
			"architecture" : "x64",
			"modernui" : 1
		}
,
		"classnamespace" : "box",
		"rect" : [ 34.0, 87.0, 1852.0, 873.0 ],
		"bglocked" : 0,
		"openinpresentation" : 0,
		"default_fontsize" : 12.0,
		"default_fontface" : 0,
		"default_fontname" : "Arial",
		"gridonopen" : 1,
		"gridsize" : [ 15.0, 15.0 ],
		"gridsnaponopen" : 1,
		"objectsnaponopen" : 1,
		"statusbarvisible" : 2,
		"toolbarvisible" : 1,
		"lefttoolbarpinned" : 0,
		"toptoolbarpinned" : 0,
		"righttoolbarpinned" : 0,
		"bottomtoolbarpinned" : 0,
		"toolbars_unpinned_last_save" : 0,
		"tallnewobj" : 0,
		"boxanimatetime" : 200,
		"enablehscroll" : 1,
		"enablevscroll" : 1,
		"devicewidth" : 0.0,
		"description" : "",
		"digest" : "",
		"tags" : "",
		"style" : "",
		"subpatcher_template" : "",
		"assistshowspatchername" : 0,
		"boxes" : [ 			{
				"box" : 				{
					"id" : "obj-276",
					"maxclass" : "message",
					"numinlets" : 2,
					"numoutlets" : 1,
					"outlettype" : [ "" ],
					"patching_rect" : [ 1625.044955015182495, 738.400010645389557, 356.40000456571579, 22.0 ],
					"presentation_linecount" : 10,
					"text" : "\"Macintosh HD:/Users/rock/Desktop/blanket_controller/patchers/\""
				}

			}
, 			{
				"box" : 				{
					"id" : "obj-275",
					"maxclass" : "message",
					"numinlets" : 2,
					"numoutlets" : 1,
					"outlettype" : [ "" ],
					"patching_rect" : [ 1846.622504651546478, 700.000010430812836, 50.0, 22.0 ]
				}

			}
, 			{
				"box" : 				{
					"fontname" : "Arial",
					"fontsize" : 11.595186999999999,
					"id" : "obj-272",
					"maxclass" : "message",
					"numinlets" : 2,
					"numoutlets" : 1,
					"outlettype" : [ "" ],
					"patching_rect" : [ 1798.322456088702893, 596.4000084400177, 32.0, 21.0 ],
					"text" : "path"
				}

			}
, 			{
				"box" : 				{
					"fontname" : "Arial",
					"fontsize" : 11.595186999999999,
					"id" : "obj-273",
					"maxclass" : "newobj",
					"numinlets" : 1,
					"numoutlets" : 2,
					"outlettype" : [ "", "" ],
					"patching_rect" : [ 1704.18914932012558, 631.200008451938629, 132.0, 21.0 ],
					"save" : [ "#N", "thispatcher", ";", "#Q", "end", ";" ],
					"text" : "thispatcher"
				}

			}
, 			{
				"box" : 				{
					"fontname" : "Arial",
					"fontsize" : 13.0,
					"id" : "obj-261",
					"maxclass" : "newobj",
					"numinlets" : 1,
					"numoutlets" : 0,
					"patching_rect" : [ 1205.675015687942505, 584.200004756450653, 100.0, 23.0 ],
					"text" : "print @popup 1"
				}

			}
, 			{
				"box" : 				{
					"bubble" : 1,
					"fontname" : "Arial",
					"fontsize" : 13.0,
					"id" : "obj-25",
					"maxclass" : "comment",
					"numinlets" : 1,
					"numoutlets" : 0,
					"patching_rect" : [ 1247.800015687942505, 387.200004756450653, 197.0, 25.0 ],
					"text" : "use dropfile to select a folder"
				}

			}
, 			{
				"box" : 				{
					"bubble" : 1,
					"fontname" : "Arial",
					"fontsize" : 13.0,
					"id" : "obj-23",
					"maxclass" : "comment",
					"numinlets" : 1,
					"numoutlets" : 0,
					"patching_rect" : [ 1092.800015687942505, 334.200004756450653, 133.0, 25.0 ],
					"text" : "bang to output list"
				}

			}
, 			{
				"box" : 				{
					"bubble" : 1,
					"fontname" : "Arial",
					"fontsize" : 13.0,
					"id" : "obj-262",
					"maxclass" : "comment",
					"numinlets" : 1,
					"numoutlets" : 0,
					"patching_rect" : [ 1297.800015687942505, 484.200004756450653, 136.0, 25.0 ],
					"text" : "return all file types"
				}

			}
, 			{
				"box" : 				{
					"fontname" : "Arial",
					"fontsize" : 13.0,
					"id" : "obj-12",
					"maxclass" : "message",
					"numinlets" : 2,
					"numoutlets" : 1,
					"outlettype" : [ "" ],
					"patching_rect" : [ 1245.800015687942505, 487.200004756450653, 42.0, 23.0 ],
					"text" : "types"
				}

			}
, 			{
				"box" : 				{
					"fontname" : "Arial",
					"fontsize" : 13.0,
					"id" : "obj-263",
					"maxclass" : "newobj",
					"numinlets" : 1,
					"numoutlets" : 1,
					"outlettype" : [ "" ],
					"patching_rect" : [ 1127.800015687942505, 472.200004756450653, 95.0, 23.0 ],
					"text" : "prepend types"
				}

			}
, 			{
				"box" : 				{
					"bubble" : 1,
					"fontname" : "Arial",
					"fontsize" : 13.0,
					"id" : "obj-27",
					"linecount" : 2,
					"maxclass" : "comment",
					"numinlets" : 1,
					"numoutlets" : 0,
					"patching_rect" : [ 1297.800015687942505, 430.700004756450653, 145.0, 40.0 ],
					"presentation_linecount" : 2,
					"text" : "choose a file type to restrict the results"
				}

			}
, 			{
				"box" : 				{
					"fontface" : 0,
					"fontname" : "Arial",
					"fontsize" : 13.0,
					"id" : "obj-264",
					"items" : [ "AIFF", ",", "APPL", "(application)", ",", "BMP", ",", "DATA", ",", "FLAC", ",", "fold", ",", "GIFf", ",", "JPEG", ",", "JSON", ",", "MPEG", ",", "Midi", ",", "MooV", ",", "PICT", ",", "PNG", ",", "TEXT", ",", "TIFF", ",", "VfW", "(AVI", "file)", ",", "WAVE", ",", "aPcs", "(audio", "plugin)", ",", "iLaF", "(Max", "external", "-", "Mac)", ",", "iLaX", "(Max", "external", "-", "Win)" ],
					"maxclass" : "umenu",
					"numinlets" : 1,
					"numoutlets" : 3,
					"outlettype" : [ "int", "", "" ],
					"parameter_enable" : 0,
					"patching_rect" : [ 1127.800015687942505, 440.200004756450653, 160.0, 23.0 ]
				}

			}
, 			{
				"box" : 				{
					"fontname" : "Arial",
					"fontsize" : 13.0,
					"id" : "obj-24",
					"maxclass" : "comment",
					"numinlets" : 1,
					"numoutlets" : 0,
					"patching_rect" : [ 1115.300015687942505, 389.200004756450653, 120.0, 21.0 ],
					"text" : "drop a folder here!"
				}

			}
, 			{
				"box" : 				{
					"id" : "obj-265",
					"maxclass" : "dropfile",
					"numinlets" : 1,
					"numoutlets" : 2,
					"outlettype" : [ "", "" ],
					"patching_rect" : [ 1107.925015687942505, 377.450004756450653, 134.75, 44.5 ]
				}

			}
, 			{
				"box" : 				{
					"fontface" : 0,
					"fontname" : "Arial",
					"fontsize" : 13.0,
					"id" : "obj-266",
					"items" : [ "abs.maxhelp", ",", "absolutepath.maxhelp", ",", "accum.maxhelp", ",", "acos.maxhelp", ",", "acosh.maxhelp", ",", "active.maxhelp", ",", "anal.maxhelp", ",", "append.maxhelp", ",", "asin.maxhelp", ",", "asinh.maxhelp", ",", "atan.maxhelp", ",", "atan2.maxhelp", ",", "atanh.maxhelp", ",", "atodb.maxhelp", ",", "atoi.maxhelp", ",", "attrui.maxhelp", ",", "autopattr.maxhelp", ",", "bag.maxhelp", ",", "bangbang.maxhelp", ",", "bendin.maxhelp", ",", "bendout.maxhelp", ",", "bgcolor.maxhelp", ",", "bitand.maxhelp", ",", "bitor.maxhelp", ",", "bline.maxhelp", ",", "bogus.maxhelp", ",", "bondo.maxhelp", ",", "borax.maxhelp", ",", "bpatcher.maxhelp", ",", "BPflip.maxpat", ",", "BPswitch.maxpat", ",", "bucket.maxhelp", ",", "buddy.maxhelp", ",", "button.maxhelp", ",", "capture.maxhelp", ",", "cartopol.maxhelp", ",", "change.maxhelp", ",", "clip.maxhelp", ",", "clocker.maxhelp", ",", "closebang.maxhelp", ",", "coll.maxhelp", ",", "colorpicker.maxhelp", ",", "combine.maxhelp", ",", "comment.maxhelp", ",", "conformpath.maxhelp", ",", "cos.maxhelp", ",", "cosh.maxhelp", ",", "counter.maxhelp", ",", "cpuclock.maxhelp", ",", "ctlin.maxhelp", ",", "ctlout.maxhelp", ",", "cycle.maxhelp", ",", "date.maxhelp", ",", "dbtoa.maxhelp", ",", "decide.maxhelp", ",", "decode.maxhelp", ",", "defer.maxhelp", ",", "deferlow.maxhelp", ",", "delay.maxhelp", ",", "detonate.maxhelp", ",", "dial.maxhelp", ",", "dialog.maxhelp", ",", "dict.deserialize.maxhelp", ",", "dict.group.maxhelp", ",", "dict.iter.maxhelp", ",", "dict.join.maxhelp", ",", "dict.maxhelp", ",", "dict.pack.maxhelp", ",", "dict.print.maxhelp", ",", "dict.route.maxhelp", ",", "dict.serialize.maxhelp", ",", "dict.slice.maxhelp", ",", "dict.strip.maxhelp", ",", "dict.unpack.maxhelp", ",", "dict.view.maxhelp", ",", "dict_file.json", ",", "dict_file2.yml", ",", "dict_help_ark.json", ",", "dict_test.js", ",", "div.maxhelp", ",", "dropfile.maxhelp", ",", "drunk.maxhelp", ",", "equals.maxhelp", ",", "error.maxhelp", ",", "example.maxpresets", ",", "expr.maxhelp", ",", "filedate.maxhelp", ",", "filein.maxhelp", ",", "filein_data.bin", ",", "filepath.maxhelp", ",", "filewatch.maxhelp", ",", "float.maxhelp", ",", "flonum.maxhelp", ",", "flush.maxhelp", ",", "folder.maxhelp", ",", "follow.maxhelp", ",", "follow_sc.midi", ",", "fontlist.maxhelp", ",", "forward.maxhelp", ",", "fpic.maxhelp", ",", "fpic_blue.png", ",", "fpic_house.png", ",", "fpic_interior.jpg", ",", "freebang.maxhelp", ",", "fromsymbol.maxhelp", ",", "fswap.maxhelp", ",", "ftom.maxhelp", ",", "funbuff.maxhelp", ",", "function.maxhelp", ",", "funnel.maxhelp", ",", "gate.maxhelp", ",", "gestalt.maxhelp", ",", "getattr.maxhelp", ",", "ggate.maxhelp", ",", "grab.maxhelp", ",", "greaterthan.maxhelp", ",", "greaterthaneq.maxhelp", ",", "gswitch.maxhelp", ",", "gswitch2.maxhelp", ",", "hi.maxhelp", ",", "hint.maxhelp", ",", "histo.maxhelp", ",", "hover.maxhelp", ",", "if.maxhelp", ",", "imovie.maxhelp", ",", "imovie_samp.mov", ",", "in.maxhelp", ",", "incdec.maxhelp", ",", "inlet.maxhelp", ",", "inport.maxhelp", ",", "int.maxhelp", ",", "itable.maxhelp", ",", "iter.maxhelp", ",", "itoa.maxhelp", ",", "jit.cellblock.maxhelp", ",", "join.maxhelp", ",", "js.maxhelp", ",", "jshelptest.js", ",", "jshelptest2.js", ",", "jstrigger.maxhelp", ",", "jsui.maxhelp", ",", "jweb.maxhelp", ",", "key.maxhelp", ",", "keyup.maxhelp", ",", "kslider.maxhelp", ",", "lcd.maxhelp", ",", "lcd_benadryl.jpg", ",", "led.maxhelp", ",", "lessthan.maxhelp", ",", "lessthaneq.maxhelp", ",", "line.maxhelp", ",", "linedrive.maxhelp", ",", "listfunnel.maxhelp", ",", "loadbang.maxhelp", ",", "loadmess.maxhelp", ",", "logand.maxhelp", ",", "logor.maxhelp", ",", "makenote.maxhelp", ",", "match.maxhelp", ",", "matrixctrl.maxhelp", ",", "maximum.maxhelp", ",", "maxurl.maxhelp", ",", "mean.maxhelp", ",", "menubar.maxhelp", ",", "message.maxhelp", ",", "metro.maxhelp", ",", "midiflush.maxhelp", ",", "midiformat.maxhelp", ",", "midiin.maxhelp", ",", "midiinfo.maxhelp", ",", "midiout.maxhelp", ",", "midiparse.maxhelp", ",", "minimum.maxhelp", ",", "minus.maxhelp", ",", "modifiers.maxhelp", ",", "modulo.maxhelp", ",", "mousefilter.maxhelp", ",", "mousestate.maxhelp", ",", "movie.maxhelp", ",", "mtof.maxhelp", ",", "mtr.maxhelp", ",", "multislider.maxhelp", ",", "myTable", ",", "next.maxhelp", ",", "nodes.maxhelp", ",", "notein.maxhelp", ",", "noteout.maxhelp", ",", "notequals.maxhelp", ",", "nslider.maxhelp", ",", "number.maxhelp", ",", "numkey.maxhelp", ",", "offer.maxhelp", ",", "onebang.maxhelp", ",", "onecopy.maxhelp", ",", "opendialog.maxhelp", ",", "openTransport.maxpat", ",", "out.maxhelp", ",", "outlet.maxhelp", ",", "outport.maxhelp", ",", "pack.maxhelp", ",", "pak.maxhelp", ",", "panel.maxhelp", ",", "parsedata.js", ",", "past.maxhelp", ",", "patcher.maxhelp", ",", "patcherargs.maxhelp", ",", "pattr.maxhelp", ",", "pattrforward.maxhelp", ",", "pattrhub.maxhelp", ",", "pattrmarker.maxhelp", ",", "pattrmarker2.maxpat", ",", "pattrstorage.maxhelp", ",", "pcontrol.maxhelp", ",", "pcontrol_ExamplePatch.maxpat", ",", "peak.maxhelp", ",", "pgmin.maxhelp", ",", "pgmout.maxhelp", ",", "pictctrl.maxhelp", ",", "pictslider.maxhelp", ",", "pipe.maxhelp", ",", "playbar.maxhelp", ",", "plus.maxhelp", ",", "poltocar.maxhelp", ",", "poly.maxhelp", ",", "polyin.maxhelp", ",", "polyout.maxhelp", ",", "pong.maxhelp", ",", "pow.maxhelp", ",", "prepend.maxhelp", ",", "preset.maxhelp", ",", "print.maxhelp", ",", "prob.maxhelp", ",", "progress.maxhelp", ",", "pv.maxhelp", ",", "pvar.maxhelp", ",", "qlim.maxhelp", ",", "qlist.maxhelp", ",", "qmetro.maxhelp", ",", "quickthresh.maxhelp", ",", "radiogroup.maxhelp", ",", "random.maxhelp", ",", "rdiv.maxhelp", ",", "receive.maxhelp", ",", "regexp.maxhelp", ",", "relativepath.maxhelp", ",", "rminus.maxhelp", ",", "round.maxhelp", ",", "route.maxhelp", ",", "routepass.maxhelp", ",", "router.maxhelp", ",", "rslider.maxhelp", ",", "rtin.maxhelp", ",", "savedialog.maxhelp", ",", "scale.maxhelp", ",", "screensize.maxhelp", ",", "select.maxhelp", ",", "send.maxhelp", ",", "seq.maxhelp", ",", "seq_sc.midi", ",", "serial.maxhelp", ",", "setclock.maxhelp", ",", "shiftleft.maxhelp", ",", "shiftright.maxhelp", ",", "sin.maxhelp", ",", "sinh.maxhelp", ",", "slide.maxhelp", ",", "slider.maxhelp", ",", "speedlim.maxhelp", ",", "spell.maxhelp", ",", "split.maxhelp", ",", "spray.maxhelp", ",", "sprintf.maxhelp", ",", "sqrt.maxhelp", ",", "standalone.maxhelp", ",", "stripnote.maxhelp", ",", "strippath.maxhelp", ",", "substitute.maxhelp", ",", "suckah.maxhelp", ",", "suspend.maxhelp", ",", "sustain.maxhelp", ",", "swap.maxhelp", ",", "swatch.maxhelp", ",", "switch.maxhelp", ",", "sxformat.maxhelp", ",", "sysexin.maxhelp", ",", "tab.maxhelp", ",", "table.maxhelp", ",", "tan.maxhelp", ",", "tanh.maxhelp", ",", "tempo.maxhelp", ",", "text.maxhelp", ",", "text_lyrics.txt", ",", "textbutton.maxhelp", ",", "textedit.maxhelp", ",", "thispatcher.maxhelp", ",", "thresh.maxhelp", ",", "timepoint.maxhelp", ",", "timer.maxhelp", ",", "times.maxhelp", ",", "togedge.maxhelp", ",", "toggle.maxhelp", ",", "tosymbol.maxhelp", ",", "touchin.maxhelp", ",", "touchout.maxhelp", ",", "translate.maxhelp", ",", "transport.maxhelp", ",", "trigger.maxhelp", ",", "trough.maxhelp", ",", "ubutton.maxhelp", ",", "udpreceive.maxhelp", ",", "udpsend.maxhelp", ",", "umenu.maxhelp", ",", "universal.maxhelp", ",", "unjoin.maxhelp", ",", "unpack.maxhelp", ",", "urn.maxhelp", ",", "uzi.maxhelp", ",", "value.maxhelp", ",", "vdp.maxhelp", ",", "vexpr.maxhelp", ",", "when.maxhelp", ",", "xbendin.maxhelp", ",", "xbendout.maxhelp", ",", "xhr_example.js", ",", "xnotein.maxhelp", ",", "xnoteout.maxhelp", ",", "zl.maxhelp", ",", "zmap.maxhelp" ],
					"maxclass" : "umenu",
					"numinlets" : 1,
					"numoutlets" : 3,
					"outlettype" : [ "int", "", "" ],
					"parameter_enable" : 0,
					"patching_rect" : [ 1067.800015687942505, 584.200004756450653, 130.0, 23.0 ]
				}

			}
, 			{
				"box" : 				{
					"id" : "obj-267",
					"maxclass" : "button",
					"numinlets" : 1,
					"numoutlets" : 1,
					"outlettype" : [ "bang" ],
					"parameter_enable" : 0,
					"patching_rect" : [ 1067.800015687942505, 334.200004756450653, 24.0, 24.0 ]
				}

			}
, 			{
				"box" : 				{
					"fontface" : 0,
					"fontname" : "Arial",
					"fontsize" : 13.0,
					"id" : "obj-5",
					"maxclass" : "newobj",
					"numinlets" : 1,
					"numoutlets" : 2,
					"outlettype" : [ "", "int" ],
					"patching_rect" : [ 1067.800015687942505, 539.200004756450653, 80.0, 23.0 ],
					"text" : "folder media"
				}

			}
, 			{
				"box" : 				{
					"border" : 0,
					"filename" : "helpargs.js",
					"id" : "obj-268",
					"ignoreclick" : 1,
					"jsarguments" : [ "folder" ],
					"maxclass" : "jsui",
					"numinlets" : 1,
					"numoutlets" : 1,
					"outlettype" : [ "" ],
					"parameter_enable" : 0,
					"patching_rect" : [ 1203.400007843971252, 540.200004756450653, 195.891006469726562, 39.0 ]
				}

			}
, 			{
				"box" : 				{
					"attr" : "black_temp",
					"displaymode" : 1,
					"id" : "obj-259",
					"lock" : 1,
					"maxclass" : "attrui",
					"numinlets" : 1,
					"numoutlets" : 1,
					"outlettype" : [ "" ],
					"parameter_enable" : 0,
					"patching_rect" : [ 610.400009095668793, 337.799999415874481, 150.0, 22.0 ],
					"presentation" : 1,
					"presentation_rect" : [ 30.244965821537122, 480.799999892711639, 181.003206701995168, 22.0 ]
				}

			}
, 			{
				"box" : 				{
					"attr" : "white_temp",
					"displaymode" : 1,
					"id" : "obj-258",
					"lock" : 1,
					"maxclass" : "attrui",
					"numinlets" : 1,
					"numoutlets" : 1,
					"outlettype" : [ "" ],
					"parameter_enable" : 0,
					"patching_rect" : [ 656.800009787082672, 411.200006127357483, 150.0, 22.0 ],
					"presentation" : 1,
					"presentation_rect" : [ 30.244965821537122, 510.021155840926099, 181.003206701995168, 22.0 ]
				}

			}
, 			{
				"box" : 				{
					"id" : "obj-255",
					"maxclass" : "newobj",
					"numinlets" : 2,
					"numoutlets" : 2,
					"outlettype" : [ "float", "float" ],
					"patching_rect" : [ 603.866663840453839, 451.200006723403931, 143.0, 22.0 ],
					"text" : "gen @gen temp_controls"
				}

			}
, 			{
				"box" : 				{
					"id" : "obj-247",
					"interval" : 30,
					"maxclass" : "meter~",
					"numinlets" : 1,
					"numleds" : 20,
					"numoutlets" : 1,
					"outlettype" : [ "float" ],
					"patching_rect" : [ 1342.022503614425659, 799.200031337406131, 112.0, 18.5 ],
					"presentation" : 1,
					"presentation_rect" : [ 1220.632515668738733, 510.605789167064415, 181.003206701995168, 22.0 ]
				}

			}
, 			{
				"box" : 				{
					"id" : "obj-246",
					"interval" : 30,
					"maxclass" : "meter~",
					"numinlets" : 1,
					"numleds" : 20,
					"numoutlets" : 1,
					"outlettype" : [ "float" ],
					"patching_rect" : [ 1178.222470879554749, 792.000023603439331, 112.0, 18.5 ],
					"presentation" : 1,
					"presentation_rect" : [ 506.399985760417792, 510.021155840926099, 181.003206701995168, 22.000000000000114 ]
				}

			}
, 			{
				"box" : 				{
					"id" : "obj-57",
					"maxclass" : "newobj",
					"numinlets" : 0,
					"numoutlets" : 1,
					"outlettype" : [ "" ],
					"patching_rect" : [ 601.322475790977478, 1151.0, 84.0, 22.0 ],
					"text" : "r video_on_off"
				}

			}
, 			{
				"box" : 				{
					"id" : "obj-243",
					"maxclass" : "newobj",
					"numinlets" : 2,
					"numoutlets" : 1,
					"outlettype" : [ "" ],
					"patching_rect" : [ 1155.222470879554749, 1271.400003072883464, 62.000000894069672, 22.0 ],
					"text" : "gate"
				}

			}
, 			{
				"box" : 				{
					"attr" : "audio_reactive",
					"displaymode" : 8,
					"id" : "obj-241",
					"lock" : 1,
					"maxclass" : "attrui",
					"numinlets" : 1,
					"numoutlets" : 1,
					"outlettype" : [ "" ],
					"parameter_enable" : 0,
					"patching_rect" : [ 1216.68916654586792, 1147.200017094612122, 150.0, 22.0 ],
					"presentation" : 1,
					"presentation_rect" : [ 506.289166331291199, 539.242311789140672, 181.003206701995168, 22.0 ]
				}

			}
, 			{
				"box" : 				{
					"id" : "obj-240",
					"maxclass" : "newobj",
					"numinlets" : 2,
					"numoutlets" : 1,
					"outlettype" : [ "" ],
					"patching_rect" : [ 1471.200003385543823, 1298.400019347667694, 62.000000894069672, 22.0 ],
					"text" : "gate"
				}

			}
, 			{
				"box" : 				{
					"attr" : "audio_reactive",
					"displaymode" : 8,
					"id" : "obj-237",
					"lock" : 1,
					"maxclass" : "attrui",
					"numinlets" : 1,
					"numoutlets" : 1,
					"outlettype" : [ "" ],
					"parameter_enable" : 0,
					"patching_rect" : [ 1521.089137971401215, 1173.600016713142395, 150.0, 22.0 ],
					"presentation" : 1,
					"presentation_rect" : [ 1220.632515668738733, 539.729350316649629, 181.003206701995168, 22.0 ]
				}

			}
, 			{
				"box" : 				{
					"id" : "obj-231",
					"maxclass" : "comment",
					"numinlets" : 1,
					"numoutlets" : 0,
					"patching_rect" : [ 2483.655840158462524, 1191.398837609606289, 150.0, 20.0 ],
					"presentation" : 1,
					"presentation_rect" : [ 1220.632515668738733, 251.866664886474496, 140.399999856948853, 20.0 ],
					"text" : "Hue Shifting"
				}

			}
, 			{
				"box" : 				{
					"id" : "obj-230",
					"maxclass" : "comment",
					"numinlets" : 1,
					"numoutlets" : 0,
					"patching_rect" : [ 2470.722502529621124, 1159.466671228408813, 150.0, 20.0 ],
					"presentation" : 1,
					"presentation_rect" : [ 982.55500569929859, 251.866664886474496, 140.399999856948853, 20.0 ],
					"text" : "Colour Adjustment"
				}

			}
, 			{
				"box" : 				{
					"id" : "obj-229",
					"maxclass" : "comment",
					"numinlets" : 1,
					"numoutlets" : 0,
					"patching_rect" : [ 2476.689165532588959, 1206.065504176931881, 150.0, 20.0 ],
					"presentation" : 1,
					"presentation_rect" : [ 744.477495729858219, 251.866664886474496, 140.399999856948853, 20.0 ],
					"text" : "Colour Mapping"
				}

			}
, 			{
				"box" : 				{
					"id" : "obj-228",
					"maxclass" : "comment",
					"numinlets" : 1,
					"numoutlets" : 0,
					"patching_rect" : [ 2435.222470879554749, 1178.398851378279232, 150.0, 20.0 ],
					"presentation" : 1,
					"presentation_rect" : [ 506.399985760417792, 251.866664886474496, 140.399999856948853, 20.0 ],
					"text" : "Modulo Detail Adder"
				}

			}
, 			{
				"box" : 				{
					"id" : "obj-227",
					"maxclass" : "comment",
					"numinlets" : 1,
					"numoutlets" : 0,
					"patching_rect" : [ 2476.689165532588959, 1119.0, 150.0, 20.0 ],
					"presentation" : 1,
					"presentation_rect" : [ 268.322475790977478, 251.866664886474496, 140.399999856948853, 20.0 ],
					"text" : "Feetback Filter"
				}

			}
, 			{
				"box" : 				{
					"id" : "obj-226",
					"maxclass" : "comment",
					"numinlets" : 1,
					"numoutlets" : 0,
					"patching_rect" : [ 2435.222470879554749, 1159.466671228408813, 150.0, 20.0 ],
					"presentation" : 1,
					"presentation_rect" : [ 30.244965821537122, 251.866664886474496, 140.399999856948853, 20.0 ],
					"text" : "Thermal Camera Input "
				}

			}
, 			{
				"box" : 				{
					"id" : "obj-224",
					"maxclass" : "comment",
					"numinlets" : 1,
					"numoutlets" : 0,
					"patching_rect" : [ 2483.655840158462524, 1287.662586570574604, 92.0, 20.0 ],
					"presentation" : 1,
					"presentation_rect" : [ 47.467466834179291, 623.507197019427622, 135.380704938334475, 20.0 ],
					"text" : "black temp"
				}

			}
, 			{
				"box" : 				{
					"id" : "obj-223",
					"maxclass" : "comment",
					"numinlets" : 1,
					"numoutlets" : 0,
					"patching_rect" : [ 2488.655840158462524, 1259.662586570574604, 92.0, 20.0 ],
					"presentation" : 1,
					"presentation_rect" : [ 47.467466834179291, 592.400536393542779, 135.380704938334475, 20.0 ],
					"text" : "black temp"
				}

			}
, 			{
				"box" : 				{
					"id" : "obj-212",
					"maxclass" : "button",
					"numinlets" : 1,
					"numoutlets" : 1,
					"outlettype" : [ "bang" ],
					"parameter_enable" : 0,
					"patching_rect" : [ 245.0, 215.0, 24.0, 24.0 ]
				}

			}
, 			{
				"box" : 				{
					"attr" : "decay_speed",
					"id" : "obj-197",
					"lock" : 1,
					"maxclass" : "attrui",
					"numinlets" : 1,
					"numoutlets" : 1,
					"outlettype" : [ "" ],
					"parameter_enable" : 0,
					"patching_rect" : [ 1521.089137971401215, 1028.000014543533325, 150.0, 22.0 ],
					"presentation" : 1,
					"presentation_rect" : [ 1220.632515668738733, 597.976472615820057, 181.003206701995168, 22.0 ]
				}

			}
, 			{
				"box" : 				{
					"attr" : "attack_speed",
					"id" : "obj-198",
					"lock" : 1,
					"maxclass" : "attrui",
					"numinlets" : 1,
					"numoutlets" : 1,
					"outlettype" : [ "" ],
					"parameter_enable" : 0,
					"patching_rect" : [ 1521.089137971401215, 996.800014078617096, 150.0, 22.0 ],
					"presentation" : 1,
					"presentation_rect" : [ 1220.632515668738733, 568.852911466234787, 181.003206701995168, 22.0 ]
				}

			}
, 			{
				"box" : 				{
					"attr" : "max_val",
					"id" : "obj-200",
					"lock" : 1,
					"maxclass" : "attrui",
					"numinlets" : 1,
					"numoutlets" : 1,
					"outlettype" : [ "" ],
					"parameter_enable" : 0,
					"patching_rect" : [ 1521.089137971401215, 1115.200015842914581, 150.0, 22.0 ],
					"presentation" : 1,
					"presentation_rect" : [ 1220.632515668738733, 656.223594914990372, 181.003206701995168, 22.0 ]
				}

			}
, 			{
				"box" : 				{
					"id" : "obj-201",
					"maxclass" : "newobj",
					"numinlets" : 1,
					"numoutlets" : 2,
					"outlettype" : [ "float", "float" ],
					"patching_rect" : [ 1471.200003385543823, 1241.800002631809093, 135.0, 22.0 ],
					"text" : "gen @gen audio_scaler"
				}

			}
, 			{
				"box" : 				{
					"attr" : "min_val",
					"id" : "obj-202",
					"lock" : 1,
					"maxclass" : "attrui",
					"numinlets" : 1,
					"numoutlets" : 1,
					"outlettype" : [ "" ],
					"parameter_enable" : 0,
					"patching_rect" : [ 1521.089137971401215, 1059.200015008449554, 150.0, 22.0 ],
					"presentation" : 1,
					"presentation_rect" : [ 1220.632515668738733, 627.100033765405215, 181.003206701995168, 22.0 ]
				}

			}
, 			{
				"box" : 				{
					"attr" : "decay_speed",
					"id" : "obj-195",
					"lock" : 1,
					"maxclass" : "attrui",
					"numinlets" : 1,
					"numoutlets" : 1,
					"outlettype" : [ "" ],
					"parameter_enable" : 0,
					"patching_rect" : [ 1216.68916654586792, 1028.000014543533325, 150.0, 22.0 ],
					"presentation" : 1,
					"presentation_rect" : [ 506.399985760417792, 597.684623685569704, 179.003206701995225, 22.0 ]
				}

			}
, 			{
				"box" : 				{
					"attr" : "attack_speed",
					"id" : "obj-196",
					"lock" : 1,
					"maxclass" : "attrui",
					"numinlets" : 1,
					"numoutlets" : 1,
					"outlettype" : [ "" ],
					"parameter_enable" : 0,
					"patching_rect" : [ 1216.68916654586792, 996.800014078617096, 150.0, 22.0 ],
					"presentation" : 1,
					"presentation_rect" : [ 506.399985760417792, 568.463467737355131, 179.003206701995225, 22.0 ]
				}

			}
, 			{
				"box" : 				{
					"attr" : "max_val",
					"id" : "obj-190",
					"lock" : 1,
					"maxclass" : "attrui",
					"numinlets" : 1,
					"numoutlets" : 1,
					"outlettype" : [ "" ],
					"parameter_enable" : 0,
					"patching_rect" : [ 1216.68916654586792, 1115.200015842914581, 150.0, 22.0 ],
					"presentation" : 1,
					"presentation_rect" : [ 506.399985760417792, 656.126935581998623, 179.003206701995225, 22.0 ]
				}

			}
, 			{
				"box" : 				{
					"id" : "obj-189",
					"maxclass" : "newobj",
					"numinlets" : 1,
					"numoutlets" : 2,
					"outlettype" : [ "float", "float" ],
					"patching_rect" : [ 1155.222470879554749, 1204.200002071525432, 135.0, 22.0 ],
					"text" : "gen @gen audio_scaler"
				}

			}
, 			{
				"box" : 				{
					"attr" : "min_val",
					"id" : "obj-187",
					"lock" : 1,
					"maxclass" : "attrui",
					"numinlets" : 1,
					"numoutlets" : 1,
					"outlettype" : [ "" ],
					"parameter_enable" : 0,
					"patching_rect" : [ 1216.68916654586792, 1059.200015008449554, 150.0, 22.0 ],
					"presentation" : 1,
					"presentation_rect" : [ 506.399985760417792, 626.905779633784164, 179.003206701995225, 22.0 ]
				}

			}
, 			{
				"box" : 				{
					"attr" : "hue_angle",
					"fontface" : 0,
					"fontname" : "Arial",
					"fontsize" : 13.0,
					"id" : "obj-157",
					"lock" : 1,
					"maxclass" : "attrui",
					"numinlets" : 1,
					"numoutlets" : 1,
					"outlettype" : [ "" ],
					"parameter_enable" : 0,
					"patching_rect" : [ 177.23332890868187, 1295.400008678436279, 126.0, 23.0 ],
					"presentation" : 1,
					"presentation_rect" : [ 1220.632515668738733, 480.799999892711639, 181.003206701995168, 23.0 ],
					"varname" : "attrui[7]"
				}

			}
, 			{
				"box" : 				{
					"id" : "obj-121",
					"maxclass" : "comment",
					"numinlets" : 1,
					"numoutlets" : 0,
					"patching_rect" : [ 2386.900030791759491, 1191.398837609606289, 150.0, 20.0 ],
					"presentation" : 1,
					"presentation_rect" : [ 176.369070936195385, 131.261656788605706, 135.380704938334475, 20.0 ],
					"text" : "blanket on/off"
				}

			}
, 			{
				"box" : 				{
					"id" : "obj-120",
					"maxclass" : "comment",
					"numinlets" : 1,
					"numoutlets" : 0,
					"patching_rect" : [ 2464.222470879554749, 1143.632215963057206, 92.0, 20.0 ],
					"presentation" : 1,
					"presentation_rect" : [ 176.369070936195385, 99.488319164582663, 135.380704938334475, 20.0 ],
					"text" : "camera on/off"
				}

			}
, 			{
				"box" : 				{
					"id" : "obj-115",
					"maxclass" : "newobj",
					"numinlets" : 2,
					"numoutlets" : 1,
					"outlettype" : [ "bang" ],
					"patching_rect" : [ 420.0, 417.662587107016293, 61.0, 22.0 ],
					"text" : "delay 100"
				}

			}
, 			{
				"box" : 				{
					"id" : "obj-114",
					"maxclass" : "newobj",
					"numinlets" : 0,
					"numoutlets" : 1,
					"outlettype" : [ "" ],
					"patching_rect" : [ 420.0, 386.73217128069939, 96.0, 22.0 ],
					"text" : "r camera_on_off"
				}

			}
, 			{
				"box" : 				{
					"id" : "obj-106",
					"maxclass" : "newobj",
					"numinlets" : 2,
					"numoutlets" : 1,
					"outlettype" : [ "float" ],
					"patching_rect" : [ 1471.200003385543823, 925.733366903926822, 82.0, 22.0 ],
					"text" : "peakamp~ 33"
				}

			}
, 			{
				"box" : 				{
					"id" : "obj-85",
					"maxclass" : "newobj",
					"numinlets" : 2,
					"numoutlets" : 1,
					"outlettype" : [ "float" ],
					"patching_rect" : [ 1155.222470879554749, 934.233300563957187, 82.0, 22.0 ],
					"text" : "peakamp~ 33"
				}

			}
, 			{
				"box" : 				{
					"id" : "obj-50",
					"maxclass" : "newobj",
					"numinlets" : 0,
					"numoutlets" : 1,
					"outlettype" : [ "" ],
					"patching_rect" : [ 546.755810260772705, 174.463882207870483, 96.0, 22.0 ],
					"text" : "r camera_on_off"
				}

			}
, 			{
				"box" : 				{
					"id" : "obj-44",
					"maxclass" : "newobj",
					"numinlets" : 1,
					"numoutlets" : 0,
					"patching_rect" : [ 1129.566664934158325, 245.0, 86.0, 22.0 ],
					"text" : "s video_on_off"
				}

			}
, 			{
				"box" : 				{
					"id" : "obj-45",
					"maxclass" : "toggle",
					"numinlets" : 1,
					"numoutlets" : 1,
					"outlettype" : [ "int" ],
					"parameter_enable" : 0,
					"patching_rect" : [ 1129.566664934158325, 192.933349192142487, 24.0, 24.0 ],
					"presentation" : 1,
					"presentation_rect" : [ 108.746569172534706, 131.261656788605706, 24.0, 24.0 ],
					"varname" : "toggle[2]"
				}

			}
, 			{
				"box" : 				{
					"id" : "obj-43",
					"maxclass" : "newobj",
					"numinlets" : 1,
					"numoutlets" : 0,
					"patching_rect" : [ 994.089143753051758, 245.0, 98.0, 22.0 ],
					"text" : "s camera_on_off"
				}

			}
, 			{
				"box" : 				{
					"attr" : "slide_down",
					"attrfilter" : [ "slide_down" ],
					"fontface" : 0,
					"fontname" : "Arial",
					"fontsize" : 13.0,
					"id" : "obj-29",
					"lock" : 1,
					"maxclass" : "attrui",
					"numinlets" : 1,
					"numoutlets" : 1,
					"outlettype" : [ "" ],
					"parameter_enable" : 0,
					"patching_rect" : [ 40.955810070037842, 431.000000298023224, 150.0, 23.0 ],
					"presentation" : 1,
					"presentation_rect" : [ 268.322475790977478, 510.021155840926099, 181.003206701995168, 23.0 ],
					"varname" : "attrui[6]"
				}

			}
, 			{
				"box" : 				{
					"attr" : "slide_up",
					"attrfilter" : [ "slide_up" ],
					"fontface" : 0,
					"fontname" : "Arial",
					"fontsize" : 13.0,
					"id" : "obj-36",
					"lock" : 1,
					"maxclass" : "attrui",
					"numinlets" : 1,
					"numoutlets" : 1,
					"outlettype" : [ "" ],
					"parameter_enable" : 0,
					"patching_rect" : [ 40.955810070037842, 397.000000298023224, 150.0, 23.0 ],
					"presentation" : 1,
					"presentation_rect" : [ 268.322475790977478, 480.799999892711639, 181.003206701995168, 23.0 ],
					"varname" : "attrui[5]"
				}

			}
, 			{
				"box" : 				{
					"fontname" : "Arial",
					"fontsize" : 13.0,
					"id" : "obj-38",
					"maxclass" : "newobj",
					"numinlets" : 1,
					"numoutlets" : 2,
					"outlettype" : [ "jit_matrix", "" ],
					"patching_rect" : [ 272.400000870227814, 568.000001072883606, 51.0, 23.0 ],
					"text" : "jit.slide"
				}

			}
, 			{
				"box" : 				{
					"id" : "obj-34",
					"maxclass" : "newobj",
					"numinlets" : 2,
					"numoutlets" : 1,
					"outlettype" : [ "bang" ],
					"patching_rect" : [ 420.0, 445.231653459963923, 63.0, 22.0 ],
					"text" : "qmetro 33"
				}

			}
, 			{
				"box" : 				{
					"id" : "obj-18",
					"maxclass" : "newobj",
					"numinlets" : 1,
					"numoutlets" : 0,
					"patching_rect" : [ 328.066640046279645, 636.066668629646301, 60.0, 22.0 ],
					"text" : "s video_2"
				}

			}
, 			{
				"box" : 				{
					"id" : "obj-15",
					"maxclass" : "newobj",
					"numinlets" : 0,
					"numoutlets" : 1,
					"outlettype" : [ "" ],
					"patching_rect" : [ 967.066610688052606, 1.054048169812404, 58.0, 22.0 ],
					"text" : "r video_6"
				}

			}
, 			{
				"box" : 				{
					"id" : "obj-17",
					"maxclass" : "jit.pwindow",
					"numinlets" : 1,
					"numoutlets" : 2,
					"outlettype" : [ "jit_matrix", "" ],
					"patching_rect" : [ 967.066610688052606, 49.477754846813809, 75.666678309440613, 74.522252544162257 ],
					"presentation" : 1,
					"presentation_rect" : [ 1220.632515668738733, 294.376118851602087, 181.003206701995168, 176.204650443574565 ],
					"sync" : 1
				}

			}
, 			{
				"box" : 				{
					"fontname" : "Arial",
					"fontsize" : 13.0,
					"id" : "obj-1",
					"maxclass" : "message",
					"numinlets" : 2,
					"numoutlets" : 1,
					"outlettype" : [ "" ],
					"patching_rect" : [ 1155.222470879554749, 654.200000703334808, 40.0, 23.0 ],
					"text" : "open"
				}

			}
, 			{
				"box" : 				{
					"id" : "obj-102",
					"maxclass" : "toggle",
					"numinlets" : 1,
					"numoutlets" : 1,
					"outlettype" : [ "int" ],
					"parameter_enable" : 0,
					"patching_rect" : [ 994.089143753051758, 192.933349192142487, 24.0, 24.0 ],
					"presentation" : 1,
					"presentation_rect" : [ 108.746569172534706, 98.261112205384734, 24.0, 24.0 ],
					"varname" : "toggle[1]"
				}

			}
, 			{
				"box" : 				{
					"bgmode" : 0,
					"border" : 0,
					"clickthrough" : 0,
					"enablehscroll" : 0,
					"enablevscroll" : 0,
					"id" : "obj-95",
					"lockeddragscroll" : 0,
					"lockedsize" : 0,
					"maxclass" : "bpatcher",
					"name" : "draw.webcam.maxpat",
					"numinlets" : 0,
					"numoutlets" : 0,
					"offset" : [ 0.0, 0.0 ],
					"patching_rect" : [ 3619.329877614974976, 428.418888154361753, 284.410934528570579, 123.133332282304764 ],
					"viewvisibility" : 1
				}

			}
, 			{
				"box" : 				{
					"bgmode" : 0,
					"border" : 0,
					"clickthrough" : 0,
					"enablehscroll" : 0,
					"enablevscroll" : 0,
					"id" : "obj-192",
					"lockeddragscroll" : 0,
					"lockedsize" : 0,
					"maxclass" : "bpatcher",
					"name" : "draw.metro.maxpat",
					"numinlets" : 0,
					"numoutlets" : 0,
					"offset" : [ 0.0, 0.0 ],
					"patching_rect" : [ 3584.0, 331.7377983060818, 237.926914557647251, 76.439062622813253 ],
					"viewvisibility" : 1
				}

			}
, 			{
				"box" : 				{
					"id" : "obj-11",
					"maxclass" : "newobj",
					"numinlets" : 0,
					"numoutlets" : 1,
					"outlettype" : [ "" ],
					"patching_rect" : [ 37.233326822519302, 1094.200013339519501, 88.0, 22.0 ],
					"text" : "r audio_filter_2"
				}

			}
, 			{
				"box" : 				{
					"id" : "obj-8",
					"maxclass" : "newobj",
					"numinlets" : 1,
					"numoutlets" : 1,
					"outlettype" : [ "bang" ],
					"patching_rect" : [ 1637.272495329380035, 274.398851378279346, 68.0, 22.0 ],
					"text" : "loadbang 0"
				}

			}
, 			{
				"box" : 				{
					"id" : "obj-10",
					"maxclass" : "newobj",
					"numinlets" : 1,
					"numoutlets" : 1,
					"outlettype" : [ "bang" ],
					"patching_rect" : [ 1506.18914932012558, 152.398851378279346, 58.0, 22.0 ],
					"text" : "loadbang"
				}

			}
, 			{
				"box" : 				{
					"id" : "obj-9",
					"linecount" : 3,
					"maxclass" : "message",
					"numinlets" : 2,
					"numoutlets" : 1,
					"outlettype" : [ "" ],
					"patching_rect" : [ 1496.18914932012558, 182.565504176931995, 340.0, 49.0 ],
					"text" : "read \"Macintosh HD:/Users/remi/Library/CloudStorage/Dropbox/Projects/Rock Dreams/Led Send/gradients/red_green.png\""
				}

			}
, 			{
				"box" : 				{
					"id" : "obj-184",
					"maxclass" : "newobj",
					"numinlets" : 0,
					"numoutlets" : 1,
					"outlettype" : [ "" ],
					"patching_rect" : [ 870.599970367591595, 1.054048169812404, 58.0, 22.0 ],
					"text" : "r video_5"
				}

			}
, 			{
				"box" : 				{
					"id" : "obj-185",
					"maxclass" : "jit.pwindow",
					"numinlets" : 1,
					"numoutlets" : 2,
					"outlettype" : [ "jit_matrix", "" ],
					"patching_rect" : [ 870.599970367591595, 49.477754846813809, 75.666678309440613, 74.522252544162257 ],
					"presentation" : 1,
					"presentation_rect" : [ 982.55500569929859, 294.376118851602087, 181.003206701995168, 176.204650443574565 ],
					"sync" : 1
				}

			}
, 			{
				"box" : 				{
					"id" : "obj-183",
					"maxclass" : "newobj",
					"numinlets" : 1,
					"numoutlets" : 0,
					"patching_rect" : [ 304.933327227830887, 1157.666669607162476, 60.0, 22.0 ],
					"text" : "s video_6"
				}

			}
, 			{
				"box" : 				{
					"id" : "obj-177",
					"maxclass" : "newobj",
					"numinlets" : 1,
					"numoutlets" : 2,
					"outlettype" : [ "jit_matrix", "" ],
					"patching_rect" : [ 272.322475790977478, 1111.500011026859283, 41.0, 22.0 ],
					"text" : "jit.hue"
				}

			}
, 			{
				"box" : 				{
					"id" : "obj-175",
					"maxclass" : "newobj",
					"numinlets" : 1,
					"numoutlets" : 0,
					"patching_rect" : [ 1471.200003385543823, 1343.266662177707531, 90.0, 22.0 ],
					"text" : "s audio_filter_2"
				}

			}
, 			{
				"box" : 				{
					"id" : "obj-174",
					"maxclass" : "newobj",
					"numinlets" : 0,
					"numoutlets" : 1,
					"outlettype" : [ "" ],
					"patching_rect" : [ 25.233326822519302, 605.066678762435913, 88.0, 22.0 ],
					"text" : "r audio_filter_1"
				}

			}
, 			{
				"box" : 				{
					"id" : "obj-173",
					"maxclass" : "newobj",
					"numinlets" : 1,
					"numoutlets" : 0,
					"patching_rect" : [ 1155.222470879554749, 1348.000020086765289, 90.0, 22.0 ],
					"text" : "s audio_filter_1"
				}

			}
, 			{
				"box" : 				{
					"id" : "obj-104",
					"maxclass" : "newobj",
					"numinlets" : 1,
					"numoutlets" : 0,
					"patching_rect" : [ 1511.700003385543823, 822.533365366126986, 54.0, 22.0 ],
					"text" : "s gain_2"
				}

			}
, 			{
				"box" : 				{
					"id" : "obj-51",
					"maxclass" : "newobj",
					"numinlets" : 1,
					"numoutlets" : 2,
					"outlettype" : [ "bang", "" ],
					"patching_rect" : [ 1793.639158993959427, 401.798865242319721, 29.5, 22.0 ],
					"text" : "t b l"
				}

			}
, 			{
				"box" : 				{
					"id" : "obj-49",
					"maxclass" : "newobj",
					"numinlets" : 1,
					"numoutlets" : 3,
					"outlettype" : [ "bang", "bang", "int" ],
					"patching_rect" : [ 1635.522495329380035, 369.898840351420063, 40.0, 22.0 ],
					"text" : "t b b i"
				}

			}
, 			{
				"box" : 				{
					"id" : "obj-48",
					"maxclass" : "newobj",
					"numinlets" : 2,
					"numoutlets" : 1,
					"outlettype" : [ "int" ],
					"patching_rect" : [ 1656.522495329380035, 462.732177628594059, 29.5, 22.0 ],
					"text" : "+ 1"
				}

			}
, 			{
				"box" : 				{
					"id" : "obj-30",
					"maxclass" : "toggle",
					"numinlets" : 1,
					"numoutlets" : 1,
					"outlettype" : [ "int" ],
					"parameter_enable" : 0,
					"patching_rect" : [ 1635.522495329380035, 302.065504176931995, 24.0, 24.0 ],
					"presentation" : 1,
					"presentation_rect" : [ 744.477495729858219, 508.021155840926326, 24.0, 24.0 ],
					"varname" : "toggle"
				}

			}
, 			{
				"box" : 				{
					"id" : "obj-21",
					"maxclass" : "newobj",
					"numinlets" : 3,
					"numoutlets" : 1,
					"outlettype" : [ "" ],
					"patching_rect" : [ 1656.522495329380035, 495.23217926772179, 293.399995505809784, 22.0 ],
					"text" : "switch"
				}

			}
, 			{
				"box" : 				{
					"bgmode" : 0,
					"border" : 0,
					"clickthrough" : 0,
					"enablehscroll" : 0,
					"enablevscroll" : 0,
					"id" : "obj-3",
					"lockeddragscroll" : 0,
					"lockedsize" : 0,
					"maxclass" : "bpatcher",
					"name" : "jit.gradient.ui.maxpat",
					"numinlets" : 1,
					"numoutlets" : 1,
					"offset" : [ 0.0, 0.0 ],
					"outlettype" : [ "jit_matrix" ],
					"patching_rect" : [ 1519.0, 121.0, 480.0, 85.0 ],
					"presentation" : 1,
					"presentation_rect" : [ 863.61163507997162, 85.598864598589557, 480.0, 85.0 ],
					"varname" : "jit.gradient.ui",
					"viewvisibility" : 1
				}

			}
, 			{
				"box" : 				{
					"id" : "obj-2",
					"maxclass" : "newobj",
					"numinlets" : 0,
					"numoutlets" : 1,
					"outlettype" : [ "" ],
					"patching_rect" : [ 1229.699971702735638, 1.054048169812404, 52.0, 22.0 ],
					"text" : "r gain_2"
				}

			}
, 			{
				"box" : 				{
					"id" : "obj-182",
					"maxclass" : "newobj",
					"numinlets" : 0,
					"numoutlets" : 1,
					"outlettype" : [ "" ],
					"patching_rect" : [ 1101.699971702735638, 1.054048169812404, 52.0, 22.0 ],
					"text" : "r gain_1"
				}

			}
, 			{
				"box" : 				{
					"id" : "obj-181",
					"maxclass" : "jit.pwindow",
					"numinlets" : 1,
					"numoutlets" : 2,
					"outlettype" : [ "jit_matrix", "" ],
					"patching_rect" : [ 1381.399932378611993, 49.334407399931933, 75.666678309440613, 74.665599991044132 ],
					"presentation" : 1,
					"presentation_rect" : [ 849.814024122412775, 488.063750325605497, 75.666678309440613, 74.665599991044132 ],
					"sync" : 1
				}

			}
, 			{
				"box" : 				{
					"id" : "obj-180",
					"maxclass" : "newobj",
					"numinlets" : 0,
					"numoutlets" : 1,
					"outlettype" : [ "" ],
					"patching_rect" : [ 1381.399932378611993, 1.054048169812404, 63.0, 22.0 ],
					"text" : "r charmap"
				}

			}
, 			{
				"box" : 				{
					"id" : "obj-179",
					"maxclass" : "newobj",
					"numinlets" : 1,
					"numoutlets" : 0,
					"patching_rect" : [ 1656.522495329380035, 530.932179434614795, 65.0, 22.0 ],
					"text" : "s charmap"
				}

			}
, 			{
				"box" : 				{
					"id" : "obj-170",
					"maxclass" : "newobj",
					"numinlets" : 1,
					"numoutlets" : 1,
					"outlettype" : [ "" ],
					"patching_rect" : [ 1793.722493082284927, 355.132182522135395, 80.0, 22.0 ],
					"text" : "prepend read"
				}

			}
, 			{
				"box" : 				{
					"id" : "obj-167",
					"maxclass" : "newobj",
					"numinlets" : 1,
					"numoutlets" : 2,
					"outlettype" : [ "jit_matrix", "" ],
					"patching_rect" : [ 1793.639158993959427, 462.732177628594059, 53.0, 22.0 ],
					"text" : "jit.movie"
				}

			}
, 			{
				"box" : 				{
					"decodemode" : 1,
					"id" : "obj-165",
					"maxclass" : "live.drop",
					"numinlets" : 1,
					"numoutlets" : 2,
					"outlettype" : [ "", "" ],
					"parameter_enable" : 1,
					"patching_rect" : [ 1793.722493082284927, 287.398837609606403, 103.999998927116394, 53.333333134651184 ],
					"presentation" : 1,
					"presentation_rect" : [ 750.667455455652544, 615.266680300235635, 103.999998927116394, 53.333333134651184 ],
					"saved_attribute_attributes" : 					{
						"valueof" : 						{
							"parameter_invisible" : 1,
							"parameter_longname" : "live.drop",
							"parameter_shortname" : "live.drop",
							"parameter_type" : 4
						}

					}
,
					"varname" : "live.drop"
				}

			}
, 			{
				"box" : 				{
					"id" : "obj-164",
					"maxclass" : "message",
					"numinlets" : 2,
					"numoutlets" : 1,
					"outlettype" : [ "" ],
					"patching_rect" : [ 2062.722489595413208, 443.332175536471027, 98.0, 22.0 ],
					"presentation" : 1,
					"presentation_rect" : [ 1195.667448869339296, 24.865523083525318, 98.0, 22.0 ],
					"text" : "exportimage png"
				}

			}
, 			{
				"box" : 				{
					"id" : "obj-158",
					"maxclass" : "newobj",
					"numinlets" : 1,
					"numoutlets" : 2,
					"outlettype" : [ "jit_matrix", "" ],
					"patching_rect" : [ 1930.922490835189819, 462.732177628594059, 53.0, 22.0 ],
					"text" : "jit.matrix"
				}

			}
, 			{
				"box" : 				{
					"id" : "obj-145",
					"maxclass" : "newobj",
					"numinlets" : 0,
					"numoutlets" : 1,
					"outlettype" : [ "" ],
					"patching_rect" : [ 393.922473728656769, 730.266668498516083, 63.0, 22.0 ],
					"text" : "r charmap"
				}

			}
, 			{
				"box" : 				{
					"id" : "obj-140",
					"maxclass" : "newobj",
					"numinlets" : 0,
					"numoutlets" : 1,
					"outlettype" : [ "" ],
					"patching_rect" : [ 770.699968960921979, 1.054048169812404, 58.0, 22.0 ],
					"text" : "r video_4"
				}

			}
, 			{
				"box" : 				{
					"id" : "obj-141",
					"maxclass" : "newobj",
					"numinlets" : 0,
					"numoutlets" : 1,
					"outlettype" : [ "" ],
					"patching_rect" : [ 671.199985531013226, 1.054048169812404, 58.0, 22.0 ],
					"text" : "r video_3"
				}

			}
, 			{
				"box" : 				{
					"id" : "obj-142",
					"maxclass" : "newobj",
					"numinlets" : 0,
					"numoutlets" : 1,
					"outlettype" : [ "" ],
					"patching_rect" : [ 571.699977543990826, 1.054048169812404, 58.0, 22.0 ],
					"text" : "r video_2"
				}

			}
, 			{
				"box" : 				{
					"id" : "obj-143",
					"maxclass" : "newobj",
					"numinlets" : 0,
					"numoutlets" : 1,
					"outlettype" : [ "" ],
					"patching_rect" : [ 475.033308115642285, 1.054048169812404, 58.0, 22.0 ],
					"text" : "r video_1"
				}

			}
, 			{
				"box" : 				{
					"id" : "obj-139",
					"maxclass" : "newobj",
					"numinlets" : 1,
					"numoutlets" : 0,
					"patching_rect" : [ 314.733326196670532, 986.500011026859283, 60.0, 22.0 ],
					"text" : "s video_5"
				}

			}
, 			{
				"box" : 				{
					"id" : "obj-138",
					"maxclass" : "newobj",
					"numinlets" : 1,
					"numoutlets" : 0,
					"patching_rect" : [ 314.733326196670532, 802.066666543483734, 60.0, 22.0 ],
					"text" : "s video_4"
				}

			}
, 			{
				"box" : 				{
					"id" : "obj-137",
					"maxclass" : "newobj",
					"numinlets" : 1,
					"numoutlets" : 0,
					"patching_rect" : [ 297.733326196670532, 730.266668498516083, 60.0, 22.0 ],
					"text" : "s video_3"
				}

			}
, 			{
				"box" : 				{
					"id" : "obj-135",
					"maxclass" : "newobj",
					"numinlets" : 1,
					"numoutlets" : 0,
					"patching_rect" : [ 432.100000262260437, 553.566666305065155, 60.0, 22.0 ],
					"text" : "s video_1"
				}

			}
, 			{
				"box" : 				{
					"id" : "obj-134",
					"maxclass" : "jit.pwindow",
					"numinlets" : 1,
					"numoutlets" : 2,
					"outlettype" : [ "jit_matrix", "" ],
					"patching_rect" : [ 770.699968960921979, 49.477754846813809, 75.666678309440613, 74.522252544162257 ],
					"presentation" : 1,
					"presentation_rect" : [ 744.477495729858219, 294.376118851602087, 181.003206701995168, 176.204650443574565 ],
					"sync" : 1
				}

			}
, 			{
				"box" : 				{
					"id" : "obj-98",
					"maxclass" : "jit.pwindow",
					"numinlets" : 1,
					"numoutlets" : 2,
					"outlettype" : [ "jit_matrix", "" ],
					"patching_rect" : [ 671.199985531013226, 49.477754846813809, 75.666678309440613, 74.522252544162257 ],
					"presentation" : 1,
					"presentation_rect" : [ 506.399985760417792, 294.376118851602087, 181.003206701995225, 176.204650443574621 ],
					"sync" : 1
				}

			}
, 			{
				"box" : 				{
					"id" : "obj-97",
					"maxclass" : "jit.pwindow",
					"numinlets" : 1,
					"numoutlets" : 2,
					"outlettype" : [ "jit_matrix", "" ],
					"patching_rect" : [ 475.033308115642285, 49.334407399931933, 75.666678309440613, 74.665599991044132 ],
					"presentation" : 1,
					"presentation_rect" : [ 30.244965821537122, 294.396716980477436, 181.003206701995168, 176.543589296165351 ],
					"sync" : 1
				}

			}
, 			{
				"box" : 				{
					"id" : "obj-232",
					"maxclass" : "newobj",
					"numinlets" : 2,
					"numoutlets" : 1,
					"outlettype" : [ "bang" ],
					"patching_rect" : [ 272.322475790977478, 174.463882207870483, 119.0, 22.0 ],
					"text" : "qmetro 33 @active 1"
				}

			}
, 			{
				"box" : 				{
					"id" : "obj-16",
					"maxclass" : "newobj",
					"numinlets" : 2,
					"numoutlets" : 1,
					"outlettype" : [ "close" ],
					"patching_rect" : [ 484.755810260772705, 227.733317613601685, 81.0, 22.0 ],
					"text" : "serial_refresh"
				}

			}
, 			{
				"box" : 				{
					"id" : "obj-213",
					"maxclass" : "newobj",
					"numinlets" : 1,
					"numoutlets" : 2,
					"outlettype" : [ "jit_matrix", "" ],
					"patching_rect" : [ 272.322475790977478, 698.766667068004608, 187.0, 22.0 ],
					"text" : "jit.gen @gen colour_control.genjit"
				}

			}
, 			{
				"box" : 				{
					"attr" : "modulo",
					"id" : "obj-214",
					"lock" : 1,
					"maxclass" : "attrui",
					"numinlets" : 1,
					"numoutlets" : 1,
					"outlettype" : [ "" ],
					"parameter_enable" : 0,
					"patching_rect" : [ 25.233326822519302, 662.066668629646301, 150.0, 22.0 ],
					"presentation" : 1,
					"presentation_rect" : [ 506.399985760417792, 480.799999892711639, 181.003206701995225, 22.0 ],
					"varname" : "attrui[3]"
				}

			}
, 			{
				"box" : 				{
					"attr" : "saturation",
					"fontface" : 0,
					"fontname" : "Arial",
					"fontsize" : 13.0,
					"id" : "obj-205",
					"lock" : 1,
					"maxclass" : "attrui",
					"numinlets" : 1,
					"numoutlets" : 1,
					"outlettype" : [ "" ],
					"parameter_enable" : 0,
					"patching_rect" : [ 4.0, 1030.200013339519501, 150.0, 23.0 ],
					"presentation" : 1,
					"presentation_rect" : [ 982.55500569929859, 539.729350316649629, 181.003206701995168, 23.0 ],
					"varname" : "attrui[2]"
				}

			}
, 			{
				"box" : 				{
					"attr" : "contrast",
					"fontface" : 0,
					"fontname" : "Arial",
					"fontsize" : 13.0,
					"id" : "obj-7",
					"lock" : 1,
					"maxclass" : "attrui",
					"numinlets" : 1,
					"numoutlets" : 1,
					"outlettype" : [ "" ],
					"parameter_enable" : 0,
					"patching_rect" : [ 4.0, 966.037803053855896, 150.0, 23.0 ],
					"presentation" : 1,
					"presentation_rect" : [ 982.55500569929859, 510.605789167064415, 181.003206701995168, 23.0 ],
					"varname" : "attrui[1]"
				}

			}
, 			{
				"box" : 				{
					"fontname" : "Arial",
					"fontsize" : 13.0,
					"id" : "obj-22",
					"maxclass" : "newobj",
					"numinlets" : 1,
					"numoutlets" : 2,
					"outlettype" : [ "jit_matrix", "" ],
					"patching_rect" : [ 272.322475790977478, 948.037804305553436, 61.0, 23.0 ],
					"text" : "jit.brcosa"
				}

			}
, 			{
				"box" : 				{
					"attr" : "brightness",
					"fontface" : 0,
					"fontname" : "Arial",
					"fontsize" : 13.0,
					"id" : "obj-6",
					"lock" : 1,
					"maxclass" : "attrui",
					"numinlets" : 1,
					"numoutlets" : 1,
					"outlettype" : [ "" ],
					"parameter_enable" : 0,
					"patching_rect" : [ 4.0, 924.066666543483734, 150.0, 23.0 ],
					"presentation" : 1,
					"presentation_rect" : [ 982.55500569929859, 481.200000464916229, 181.003206701995168, 23.0 ],
					"varname" : "attrui"
				}

			}
, 			{
				"box" : 				{
					"id" : "obj-14",
					"maxclass" : "newobj",
					"numinlets" : 1,
					"numoutlets" : 2,
					"outlettype" : [ "jit_matrix", "" ],
					"patching_rect" : [ 272.322475790977478, 484.798853798227924, 225.0, 22.0 ],
					"text" : "jit.matrix 4 char 32 32 @adapt 0 @thru 0"
				}

			}
, 			{
				"box" : 				{
					"id" : "obj-13",
					"maxclass" : "newobj",
					"numinlets" : 2,
					"numoutlets" : 2,
					"outlettype" : [ "jit_matrix", "" ],
					"patching_rect" : [ 272.322475790977478, 763.991630372013333, 140.599997937679291, 22.0 ],
					"text" : "jit.charmap"
				}

			}
, 			{
				"box" : 				{
					"id" : "obj-125",
					"maxclass" : "jit.pwindow",
					"numinlets" : 1,
					"numoutlets" : 2,
					"outlettype" : [ "jit_matrix", "" ],
					"patching_rect" : [ 571.699977543990826, 49.334407399931933, 75.666678309440613, 74.665599991044132 ],
					"presentation" : 1,
					"presentation_rect" : [ 268.322475790977478, 294.396716980477436, 181.003206701995168, 176.543589296165351 ],
					"sync" : 1
				}

			}
, 			{
				"box" : 				{
					"id" : "obj-128",
					"maxclass" : "newobj",
					"numinlets" : 1,
					"numoutlets" : 2,
					"outlettype" : [ "int", "" ],
					"patching_rect" : [ 272.322475790977478, 227.733317613601685, 196.0, 22.0 ],
					"text" : "serial usbmodem73140301 115200"
				}

			}
, 			{
				"box" : 				{
					"id" : "obj-4",
					"maxclass" : "newobj",
					"numinlets" : 3,
					"numoutlets" : 1,
					"outlettype" : [ "jit_matrix" ],
					"patching_rect" : [ 272.322475790977478, 289.23331755399704, 622.0, 22.0 ],
					"text" : "serial_data_to_matrix.maxpat 20 35"
				}

			}
, 			{
				"box" : 				{
					"id" : "obj-124",
					"maxclass" : "newobj",
					"numinlets" : 2,
					"numoutlets" : 0,
					"patching_rect" : [ 272.322475790977478, 1235.366636869575359, 348.0, 22.0 ],
					"text" : "matrix_to_serial"
				}

			}
, 			{
				"box" : 				{
					"id" : "obj-37",
					"maxclass" : "newobj",
					"numinlets" : 1,
					"numoutlets" : 2,
					"outlettype" : [ "signal", "signal" ],
					"patching_rect" : [ 1155.222470879554749, 735.000002264976501, 334.977532505989075, 22.0 ],
					"text" : "adc~"
				}

			}
 ],
		"lines" : [ 			{
				"patchline" : 				{
					"destination" : [ "obj-37", 0 ],
					"source" : [ "obj-1", 0 ]
				}

			}
, 			{
				"patchline" : 				{
					"destination" : [ "obj-9", 0 ],
					"source" : [ "obj-10", 0 ]
				}

			}
, 			{
				"patchline" : 				{
					"destination" : [ "obj-43", 0 ],
					"source" : [ "obj-102", 0 ]
				}

			}
, 			{
				"patchline" : 				{
					"destination" : [ "obj-201", 0 ],
					"source" : [ "obj-106", 0 ]
				}

			}
, 			{
				"patchline" : 				{
					"destination" : [ "obj-157", 0 ],
					"source" : [ "obj-11", 0 ]
				}

			}
, 			{
				"patchline" : 				{
					"destination" : [ "obj-115", 0 ],
					"source" : [ "obj-114", 0 ]
				}

			}
, 			{
				"patchline" : 				{
					"destination" : [ "obj-34", 0 ],
					"source" : [ "obj-115", 0 ]
				}

			}
, 			{
				"patchline" : 				{
					"destination" : [ "obj-5", 0 ],
					"source" : [ "obj-12", 0 ]
				}

			}
, 			{
				"patchline" : 				{
					"destination" : [ "obj-16", 0 ],
					"midpoints" : [ 458.822475790977478, 259.733317613601685, 471.789143025875092, 259.733317613601685, 471.789143025875092, 222.733317613601685, 494.255810260772705, 222.733317613601685 ],
					"source" : [ "obj-128", 1 ]
				}

			}
, 			{
				"patchline" : 				{
					"destination" : [ "obj-4", 0 ],
					"source" : [ "obj-128", 0 ]
				}

			}
, 			{
				"patchline" : 				{
					"destination" : [ "obj-138", 0 ],
					"order" : 0,
					"source" : [ "obj-13", 0 ]
				}

			}
, 			{
				"patchline" : 				{
					"destination" : [ "obj-22", 0 ],
					"order" : 1,
					"source" : [ "obj-13", 0 ]
				}

			}
, 			{
				"patchline" : 				{
					"destination" : [ "obj-135", 0 ],
					"order" : 0,
					"source" : [ "obj-14", 0 ]
				}

			}
, 			{
				"patchline" : 				{
					"destination" : [ "obj-38", 0 ],
					"order" : 1,
					"source" : [ "obj-14", 0 ]
				}

			}
, 			{
				"patchline" : 				{
					"destination" : [ "obj-134", 0 ],
					"source" : [ "obj-140", 0 ]
				}

			}
, 			{
				"patchline" : 				{
					"destination" : [ "obj-98", 0 ],
					"source" : [ "obj-141", 0 ]
				}

			}
, 			{
				"patchline" : 				{
					"destination" : [ "obj-125", 0 ],
					"source" : [ "obj-142", 0 ]
				}

			}
, 			{
				"patchline" : 				{
					"destination" : [ "obj-97", 0 ],
					"source" : [ "obj-143", 0 ]
				}

			}
, 			{
				"patchline" : 				{
					"destination" : [ "obj-13", 1 ],
					"source" : [ "obj-145", 0 ]
				}

			}
, 			{
				"patchline" : 				{
					"destination" : [ "obj-17", 0 ],
					"source" : [ "obj-15", 0 ]
				}

			}
, 			{
				"patchline" : 				{
					"destination" : [ "obj-177", 0 ],
					"source" : [ "obj-157", 0 ]
				}

			}
, 			{
				"patchline" : 				{
					"destination" : [ "obj-21", 2 ],
					"source" : [ "obj-158", 0 ]
				}

			}
, 			{
				"patchline" : 				{
					"destination" : [ "obj-128", 0 ],
					"midpoints" : [ 494.255810260772705, 259.733317613601685, 582.489145994186401, 259.733317613601685, 582.489145994186401, 216.733317613601685, 281.822475790977478, 216.733317613601685 ],
					"source" : [ "obj-16", 0 ]
				}

			}
, 			{
				"patchline" : 				{
					"destination" : [ "obj-158", 0 ],
					"source" : [ "obj-164", 0 ]
				}

			}
, 			{
				"patchline" : 				{
					"destination" : [ "obj-170", 0 ],
					"source" : [ "obj-165", 0 ]
				}

			}
, 			{
				"patchline" : 				{
					"destination" : [ "obj-21", 1 ],
					"source" : [ "obj-167", 0 ]
				}

			}
, 			{
				"patchline" : 				{
					"destination" : [ "obj-51", 0 ],
					"source" : [ "obj-170", 0 ]
				}

			}
, 			{
				"patchline" : 				{
					"destination" : [ "obj-214", 0 ],
					"source" : [ "obj-174", 0 ]
				}

			}
, 			{
				"patchline" : 				{
					"destination" : [ "obj-124", 0 ],
					"order" : 1,
					"source" : [ "obj-177", 0 ]
				}

			}
, 			{
				"patchline" : 				{
					"destination" : [ "obj-183", 0 ],
					"order" : 0,
					"source" : [ "obj-177", 0 ]
				}

			}
, 			{
				"patchline" : 				{
					"destination" : [ "obj-181", 0 ],
					"source" : [ "obj-180", 0 ]
				}

			}
, 			{
				"patchline" : 				{
					"destination" : [ "obj-185", 0 ],
					"source" : [ "obj-184", 0 ]
				}

			}
, 			{
				"patchline" : 				{
					"destination" : [ "obj-189", 0 ],
					"source" : [ "obj-187", 0 ]
				}

			}
, 			{
				"patchline" : 				{
					"destination" : [ "obj-243", 0 ],
					"source" : [ "obj-189", 1 ]
				}

			}
, 			{
				"patchline" : 				{
					"destination" : [ "obj-243", 1 ],
					"source" : [ "obj-189", 0 ]
				}

			}
, 			{
				"patchline" : 				{
					"destination" : [ "obj-189", 0 ],
					"source" : [ "obj-190", 0 ]
				}

			}
, 			{
				"patchline" : 				{
					"destination" : [ "obj-189", 0 ],
					"source" : [ "obj-195", 0 ]
				}

			}
, 			{
				"patchline" : 				{
					"destination" : [ "obj-189", 0 ],
					"source" : [ "obj-196", 0 ]
				}

			}
, 			{
				"patchline" : 				{
					"destination" : [ "obj-201", 0 ],
					"source" : [ "obj-197", 0 ]
				}

			}
, 			{
				"patchline" : 				{
					"destination" : [ "obj-201", 0 ],
					"source" : [ "obj-198", 0 ]
				}

			}
, 			{
				"patchline" : 				{
					"destination" : [ "obj-201", 0 ],
					"source" : [ "obj-200", 0 ]
				}

			}
, 			{
				"patchline" : 				{
					"destination" : [ "obj-240", 0 ],
					"source" : [ "obj-201", 1 ]
				}

			}
, 			{
				"patchline" : 				{
					"destination" : [ "obj-240", 1 ],
					"source" : [ "obj-201", 0 ]
				}

			}
, 			{
				"patchline" : 				{
					"destination" : [ "obj-201", 0 ],
					"source" : [ "obj-202", 0 ]
				}

			}
, 			{
				"patchline" : 				{
					"destination" : [ "obj-22", 0 ],
					"midpoints" : [ 13.5, 1063.200013339519501, 147.661237895488739, 1063.200013339519501, 147.661237895488739, 937.037804305553436, 281.822475790977478, 937.037804305553436 ],
					"source" : [ "obj-205", 0 ]
				}

			}
, 			{
				"patchline" : 				{
					"destination" : [ "obj-179", 0 ],
					"source" : [ "obj-21", 0 ]
				}

			}
, 			{
				"patchline" : 				{
					"destination" : [ "obj-128", 0 ],
					"source" : [ "obj-212", 0 ]
				}

			}
, 			{
				"patchline" : 				{
					"destination" : [ "obj-13", 0 ],
					"order" : 1,
					"source" : [ "obj-213", 0 ]
				}

			}
, 			{
				"patchline" : 				{
					"destination" : [ "obj-137", 0 ],
					"order" : 0,
					"source" : [ "obj-213", 0 ]
				}

			}
, 			{
				"patchline" : 				{
					"destination" : [ "obj-213", 0 ],
					"source" : [ "obj-214", 0 ]
				}

			}
, 			{
				"patchline" : 				{
					"destination" : [ "obj-139", 0 ],
					"order" : 0,
					"source" : [ "obj-22", 0 ]
				}

			}
, 			{
				"patchline" : 				{
					"destination" : [ "obj-177", 0 ],
					"order" : 1,
					"source" : [ "obj-22", 0 ]
				}

			}
, 			{
				"patchline" : 				{
					"destination" : [ "obj-128", 0 ],
					"source" : [ "obj-232", 0 ]
				}

			}
, 			{
				"patchline" : 				{
					"destination" : [ "obj-201", 0 ],
					"source" : [ "obj-237", 0 ]
				}

			}
, 			{
				"patchline" : 				{
					"destination" : [ "obj-175", 0 ],
					"source" : [ "obj-240", 0 ]
				}

			}
, 			{
				"patchline" : 				{
					"destination" : [ "obj-189", 0 ],
					"source" : [ "obj-241", 0 ]
				}

			}
, 			{
				"patchline" : 				{
					"destination" : [ "obj-173", 0 ],
					"source" : [ "obj-243", 0 ]
				}

			}
, 			{
				"patchline" : 				{
					"destination" : [ "obj-4", 2 ],
					"source" : [ "obj-255", 1 ]
				}

			}
, 			{
				"patchline" : 				{
					"destination" : [ "obj-4", 1 ],
					"source" : [ "obj-255", 0 ]
				}

			}
, 			{
				"patchline" : 				{
					"destination" : [ "obj-255", 0 ],
					"source" : [ "obj-258", 0 ]
				}

			}
, 			{
				"patchline" : 				{
					"destination" : [ "obj-255", 0 ],
					"source" : [ "obj-259", 0 ]
				}

			}
, 			{
				"patchline" : 				{
					"destination" : [ "obj-5", 0 ],
					"source" : [ "obj-263", 0 ]
				}

			}
, 			{
				"patchline" : 				{
					"destination" : [ "obj-263", 0 ],
					"source" : [ "obj-264", 1 ]
				}

			}
, 			{
				"patchline" : 				{
					"destination" : [ "obj-5", 0 ],
					"source" : [ "obj-265", 0 ]
				}

			}
, 			{
				"patchline" : 				{
					"destination" : [ "obj-5", 0 ],
					"source" : [ "obj-267", 0 ]
				}

			}
, 			{
				"patchline" : 				{
					"destination" : [ "obj-273", 0 ],
					"source" : [ "obj-272", 0 ]
				}

			}
, 			{
				"patchline" : 				{
					"destination" : [ "obj-275", 1 ],
					"source" : [ "obj-273", 0 ]
				}

			}
, 			{
				"patchline" : 				{
					"destination" : [ "obj-276", 1 ],
					"source" : [ "obj-273", 1 ]
				}

			}
, 			{
				"patchline" : 				{
					"destination" : [ "obj-38", 0 ],
					"source" : [ "obj-29", 0 ]
				}

			}
, 			{
				"patchline" : 				{
					"destination" : [ "obj-158", 0 ],
					"source" : [ "obj-3", 0 ]
				}

			}
, 			{
				"patchline" : 				{
					"destination" : [ "obj-49", 0 ],
					"source" : [ "obj-30", 0 ]
				}

			}
, 			{
				"patchline" : 				{
					"destination" : [ "obj-14", 0 ],
					"source" : [ "obj-34", 0 ]
				}

			}
, 			{
				"patchline" : 				{
					"destination" : [ "obj-38", 0 ],
					"source" : [ "obj-36", 0 ]
				}

			}
, 			{
				"patchline" : 				{
					"destination" : [ "obj-104", 0 ],
					"order" : 0,
					"source" : [ "obj-37", 1 ]
				}

			}
, 			{
				"patchline" : 				{
					"destination" : [ "obj-106", 0 ],
					"order" : 1,
					"source" : [ "obj-37", 1 ]
				}

			}
, 			{
				"patchline" : 				{
					"destination" : [ "obj-246", 0 ],
					"order" : 0,
					"source" : [ "obj-37", 0 ]
				}

			}
, 			{
				"patchline" : 				{
					"destination" : [ "obj-247", 0 ],
					"order" : 2,
					"source" : [ "obj-37", 1 ]
				}

			}
, 			{
				"patchline" : 				{
					"destination" : [ "obj-85", 0 ],
					"order" : 1,
					"source" : [ "obj-37", 0 ]
				}

			}
, 			{
				"patchline" : 				{
					"destination" : [ "obj-18", 0 ],
					"order" : 0,
					"source" : [ "obj-38", 0 ]
				}

			}
, 			{
				"patchline" : 				{
					"destination" : [ "obj-213", 0 ],
					"order" : 1,
					"source" : [ "obj-38", 0 ]
				}

			}
, 			{
				"patchline" : 				{
					"destination" : [ "obj-14", 0 ],
					"source" : [ "obj-4", 0 ]
				}

			}
, 			{
				"patchline" : 				{
					"destination" : [ "obj-44", 0 ],
					"source" : [ "obj-45", 0 ]
				}

			}
, 			{
				"patchline" : 				{
					"destination" : [ "obj-21", 0 ],
					"source" : [ "obj-48", 0 ]
				}

			}
, 			{
				"patchline" : 				{
					"destination" : [ "obj-158", 0 ],
					"midpoints" : [ 1655.522495329380035, 438.815508751588482, 1940.422490835189819, 438.815508751588482 ],
					"source" : [ "obj-49", 1 ]
				}

			}
, 			{
				"patchline" : 				{
					"destination" : [ "obj-167", 0 ],
					"midpoints" : [ 1645.022495329380035, 441.98217664511742, 1803.139158993959427, 441.98217664511742 ],
					"source" : [ "obj-49", 0 ]
				}

			}
, 			{
				"patchline" : 				{
					"destination" : [ "obj-48", 0 ],
					"source" : [ "obj-49", 2 ]
				}

			}
, 			{
				"patchline" : 				{
					"destination" : [ "obj-261", 0 ],
					"order" : 0,
					"source" : [ "obj-5", 0 ]
				}

			}
, 			{
				"patchline" : 				{
					"destination" : [ "obj-266", 0 ],
					"order" : 1,
					"source" : [ "obj-5", 0 ]
				}

			}
, 			{
				"patchline" : 				{
					"destination" : [ "obj-16", 1 ],
					"source" : [ "obj-50", 0 ]
				}

			}
, 			{
				"patchline" : 				{
					"destination" : [ "obj-167", 0 ],
					"midpoints" : [ 1813.639158993959427, 442.76552143545689, 1803.139158993959427, 442.76552143545689 ],
					"source" : [ "obj-51", 1 ]
				}

			}
, 			{
				"patchline" : 				{
					"destination" : [ "obj-167", 0 ],
					"source" : [ "obj-51", 0 ]
				}

			}
, 			{
				"patchline" : 				{
					"destination" : [ "obj-124", 1 ],
					"source" : [ "obj-57", 0 ]
				}

			}
, 			{
				"patchline" : 				{
					"destination" : [ "obj-22", 0 ],
					"midpoints" : [ 13.5, 957.066666543483734, 147.661237895488739, 957.066666543483734, 147.661237895488739, 937.037804305553436, 281.822475790977478, 937.037804305553436 ],
					"source" : [ "obj-6", 0 ]
				}

			}
, 			{
				"patchline" : 				{
					"destination" : [ "obj-22", 0 ],
					"midpoints" : [ 13.5, 999.037803053855896, 147.661237895488739, 999.037803053855896, 147.661237895488739, 937.037804305553436, 281.822475790977478, 937.037804305553436 ],
					"source" : [ "obj-7", 0 ]
				}

			}
, 			{
				"patchline" : 				{
					"destination" : [ "obj-30", 0 ],
					"source" : [ "obj-8", 0 ]
				}

			}
, 			{
				"patchline" : 				{
					"destination" : [ "obj-189", 0 ],
					"source" : [ "obj-85", 0 ]
				}

			}
, 			{
				"patchline" : 				{
					"destination" : [ "obj-51", 0 ],
					"source" : [ "obj-9", 0 ]
				}

			}
 ],
		"parameters" : 		{
			"obj-165" : [ "live.drop", "live.drop", 0 ],
			"obj-3::obj-1" : [ "gradientui", "gradientui", 0 ],
			"parameterbanks" : 			{
				"0" : 				{
					"index" : 0,
					"name" : "",
					"parameters" : [ "-", "-", "-", "-", "-", "-", "-", "-" ]
				}

			}
,
			"inherited_shortname" : 1
		}
,
		"dependency_cache" : [ 			{
				"name" : "JSUIGradient.js",
				"bootpath" : "C74:/packages/Jitter Tools/javascript",
				"type" : "TEXT",
				"implicit" : 1
			}
, 			{
				"name" : "JSUIGradient_Save_Load.js",
				"bootpath" : "C74:/packages/Jitter Tools/javascript",
				"type" : "TEXT",
				"implicit" : 1
			}
, 			{
				"name" : "audio_scaler.gendsp",
				"bootpath" : "~/Desktop/blanket_controller/code",
				"patcherrelativepath" : "../code",
				"type" : "gDSP",
				"implicit" : 1
			}
, 			{
				"name" : "colour_control.genjit",
				"bootpath" : "~/Desktop/blanket_controller/code",
				"patcherrelativepath" : "../code",
				"type" : "gJIT",
				"implicit" : 1
			}
, 			{
				"name" : "helpargs.js",
				"bootpath" : "C74:/help/resources",
				"type" : "TEXT",
				"implicit" : 1
			}
, 			{
				"name" : "jit.gradient.ui.maxpat",
				"bootpath" : "C74:/packages/Jitter Tools/patchers/abstractions",
				"type" : "JSON",
				"implicit" : 1
			}
, 			{
				"name" : "matrix_to_serial.maxpat",
				"bootpath" : "~/Desktop/blanket_controller/patchers",
				"patcherrelativepath" : ".",
				"type" : "JSON",
				"implicit" : 1
			}
, 			{
				"name" : "serial_data_to_matrix.maxpat",
				"bootpath" : "~/Desktop/blanket_controller/patchers",
				"patcherrelativepath" : ".",
				"type" : "JSON",
				"implicit" : 1
			}
, 			{
				"name" : "serial_refresh.maxpat",
				"bootpath" : "~/Desktop/blanket_controller/patchers",
				"patcherrelativepath" : ".",
				"type" : "JSON",
				"implicit" : 1
			}
, 			{
				"name" : "temp_controls.gendsp",
				"bootpath" : "~/Desktop/blanket_controller/code",
				"patcherrelativepath" : "../code",
				"type" : "gDSP",
				"implicit" : 1
			}
 ],
		"autosave" : 0,
		"styles" : [ 			{
				"name" : "newobjBlue-1",
				"default" : 				{
					"accentcolor" : [ 0.317647, 0.654902, 0.976471, 1.0 ]
				}
,
				"parentstyle" : "",
				"multi" : 0
			}
, 			{
				"name" : "newobjGreen-1",
				"default" : 				{
					"accentcolor" : [ 0.0, 0.533333, 0.168627, 1.0 ]
				}
,
				"parentstyle" : "",
				"multi" : 0
			}
 ]
	}

}
